<svg xmlns="http://www.w3.org/2000/svg" viewBox="0.043749988079071045 13.699999809265137 153.3562469482422 45.25" data-asc="0.89" width="153.3562469482422" height="45.25"><defs/><g><g fill="#5044e5"><g transform="translate(0, 0)"><path d="M5.75 47.90Q3.45 47.90 2.23 46.42Q1 44.95 1 42.55Q1 40.65 1.65 38.85Q1.75 38.50 1.88 37.98Q2.00 37.45 2.15 36.75Q2.35 35.55 3.20 33.95Q2.60 34.55 1.98 34.92Q1.35 35.30 1.15 35.30Q0.70 35.30 0.35 34.98Q0 34.65 0.05 34.05Q0.30 32.30 1.33 31.73Q2.35 31.15 4.05 30.65Q4.15 30.60 4.40 30.55Q4.65 30.50 5.05 30.45Q5.45 30.35 5.72 30.25Q6 30.15 6.10 30.10Q9.25 24.65 13.30 21.05Q17.35 17.35 21.83 15.52Q26.30 13.70 30.70 13.70Q32.25 13.70 33.53 14.45Q34.80 15.20 34.80 16.45Q34.80 16.90 34.70 17.20Q34.10 19.05 33.58 20.02Q33.05 21 32.15 21.90Q31.60 22.45 30.90 22.45Q30.30 22.45 30.30 21.85Q30.30 21.40 30.65 20.75Q30.75 20.65 30.95 20.47Q31.15 20.30 31.40 20.10Q32.35 19.30 32.88 18.65Q33.40 18 33.75 17Q34.10 15.95 32.95 15.55Q31.80 15.15 30.25 15.15Q26.55 15.15 22.63 16.95Q18.70 18.75 14.93 22.05Q11.15 25.35 7.95 29.85Q9.05 29.30 10.08 28.88Q11.10 28.45 12.10 28.10Q12.40 28 13.03 27.80Q13.65 27.60 14.60 27.40L16.10 27.05Q18.55 26.50 20.68 26.18Q22.80 25.85 24.55 25.85Q27.75 25.85 29.15 26.80Q29.60 27.10 29.15 27.35Q28.85 27.45 28.70 27.45Q28.45 27.45 28.15 27.30Q27.20 26.70 25.40 26.70Q22.40 26.70 16.00 28.50Q14.65 28.85 12.88 29.63Q11.10 30.40 9.38 31.30Q7.65 32.20 6.35 33Q5.35 34.65 4.80 35.85Q4.25 37.05 3.70 38.85Q3.10 40.65 3.10 42.20Q3.10 44.15 4.02 45.30Q4.95 46.45 6.75 46.45Q9.50 46.45 13.25 45.30Q16.95 44.10 20.33 42.23Q23.70 40.35 25.60 38.45Q26.20 37.85 26.55 38.10L26.60 38.25Q26.60 38.50 26.20 38.90Q24.20 40.90 20.45 43.05Q18.00 44.45 15.35 45.55Q12.70 46.65 10.22 47.27Q7.75 47.90 5.75 47.90ZM24.55 46.60Q23.75 46.60 23.15 46.45Q22.60 46.30 22.60 46.05Q22.60 45.65 23.40 45.60Q24.15 45.55 24.40 45.45Q24.85 45.35 25.45 45.30Q26.00 45.20 26.35 45.15Q28.75 44.45 28.75 43Q28.75 42 27.70 40.45Q27.05 39.50 27.05 38.35Q27.05 36.95 27.93 35.60Q28.80 34.25 30.13 33.23Q31.45 32.20 32.80 31.85Q33.40 31.70 34.05 31.70Q35.10 31.70 35.55 32.20Q35.85 32.50 35.85 33.50Q35.85 34.25 35.60 35.02Q35.35 35.80 34.90 36.30Q34.65 36.55 34.50 36.55Q34.25 36.55 34.25 35.85L34.30 34.85Q34.35 34.45 34.38 34.15Q34.40 33.85 34.40 33.65Q34.40 32.80 34.05 32.65Q33.65 32.55 33.50 32.55Q32.45 32.55 31.25 33.50Q30.05 34.45 29.30 35.70Q29.00 36.15 29.00 36.80Q29.00 37.60 29.43 38.67Q29.85 39.75 30.05 40.25Q30.55 41.35 30.83 42.15Q31.10 42.95 31.10 43.55Q31.10 43.85 31.05 44Q31.30 43.90 32.25 43.70Q33.10 43.50 33.70 43.50Q34.05 43.50 34.05 43.65Q34.05 43.70 33.75 44Q33.60 44.15 32.83 44.48Q32.05 44.80 31.03 45.15Q30.00 45.50 29.00 45.80Q28.00 46.10 27.30 46.25Q26.10 46.60 24.55 46.60ZM28.10 58.95Q27.60 58.95 27.40 58.85Q27.25 58.70 27.10 58.50Q26.95 58.30 26.95 58.15Q27.05 56 28.30 53.25Q29.55 50.50 31.58 47.50Q33.60 44.50 35.90 41.75Q37.95 39.25 38.75 38Q39.40 36.90 40.28 34.77Q41.15 32.65 42.25 29.55Q42.35 29.25 43.00 29.15Q43.80 29.15 43.80 30.35Q43.80 31 43.65 31.30Q43.60 31.55 43.53 31.77Q43.45 32 43.40 32.10Q43.25 32.40 43.25 32.50Q43.25 32.50 43.30 32.65Q43.35 32.80 43.40 33.05Q45.05 32.25 46.30 31.77Q47.55 31.30 48.70 31.30Q50.05 31.30 50.55 32.20Q50.70 32.50 50.70 32.95Q50.70 34.05 49.85 35.73Q49.00 37.40 47.68 39.17Q46.35 40.95 44.80 42.35Q44.25 42.85 43.23 43.45Q42.20 44.05 41.03 44.58Q39.85 45.10 38.78 45.45Q37.70 45.80 37.10 45.80Q36.45 47.15 35.80 48.42Q35.15 49.70 34.45 50.90Q31.25 56.60 28.75 58.85Q28.65 58.95 28.10 58.95M38.15 43.65Q40.50 43.25 43.15 41.60Q45.80 39.95 47.55 37.65Q49.30 35.35 49.15 33.05Q48.85 32.15 47.90 32.15Q47.25 32.15 46.28 32.60Q45.30 33.05 44.30 33.75Q43.30 34.45 42.53 35.15Q41.75 35.85 41.45 36.35Q41.20 36.70 40.85 37.60Q40.65 38 40.55 38.30Q40.45 38.60 40.40 38.70Q40.15 39.35 39.80 40.13Q39.45 40.90 39.05 41.75L38.15 43.65M28.70 56Q28.70 56.20 28.80 56.20Q29.05 56.20 29.70 55.45Q30.75 54.35 31.30 53.45Q32.30 51.85 33.18 50.25Q34.05 48.65 34.85 47.05Q36.50 43.85 36.25 43.15Q35.50 43.90 34.48 45.33Q33.45 46.75 32.38 48.50Q31.30 50.25 30.38 51.98Q29.45 53.70 28.95 55.05Q28.70 55.90 28.70 56ZM49.00 45.55Q48.35 45.55 48.35 44.40Q48.35 43.45 48.80 42.55Q49.95 40.35 50.90 38.20Q51.55 36.90 52.13 35.70Q52.70 34.50 53.20 33.50Q53.50 33.20 53.80 33.20Q54.45 33.20 54.20 33.80Q54.10 34.15 53.93 34.63Q53.75 35.10 53.50 35.75Q52.70 37.85 52.55 38.70Q53.95 37.45 55.43 36.38Q56.90 35.30 58.20 34.60Q59.50 33.90 60.40 33.90Q61.20 33.90 61.20 34.55Q61.20 35.10 60.70 35.73Q60.20 36.35 59.70 36.35Q59.45 36.35 59.30 36.20Q59.15 36.15 58.70 36.15Q57.10 36.15 55.35 37.70Q53.50 39.25 52.00 41.42Q50.50 43.60 49.80 45.20Q49.45 45.55 49.00 45.55ZM61.70 45.05Q60.65 45.05 59.85 44.50Q58.55 43.50 58.55 41.50Q58.55 39.50 59.95 37.25Q61.35 35 64.20 33.10Q64.70 32.75 65.55 32.75Q66.65 32.75 67.53 33.35Q68.40 33.95 68.20 34.90Q67.85 36.45 66.68 37.65Q65.50 38.85 63.93 39.77Q62.35 40.70 60.70 41.55Q60.65 41.70 60.63 41.85Q60.60 42 60.60 42.15Q60.60 42.85 61.08 43.38Q61.55 43.90 62.40 43.90Q63.05 43.90 63.50 43.70Q64.30 43.40 64.83 43.15Q65.35 42.90 66.05 42.40Q66.75 41.90 67.95 40.90Q68.50 40.50 68.60 40.50Q68.90 40.50 68.80 40.95Q68.30 41.75 67.08 42.70Q65.85 43.65 64.38 44.35Q62.90 45.05 61.70 45.05M61.00 40.20Q61.40 40.20 62.65 39.40Q63.90 38.60 65.00 37.65Q66.90 35.90 66.90 34.95Q66.90 34.70 66.75 34.50Q66.60 34.25 66.30 34.25Q65.35 34.25 63.10 36.50Q61.55 38 61.00 40.20ZM67.45 46.60Q66.65 46.60 66.05 46.45Q65.50 46.30 65.50 46.05Q65.50 45.65 66.30 45.60Q67.05 45.55 67.30 45.45Q67.75 45.35 68.35 45.30Q68.90 45.20 69.25 45.15Q71.65 44.45 71.65 43Q71.65 42 70.60 40.45Q69.95 39.50 69.95 38.35Q69.95 36.95 70.83 35.60Q71.70 34.25 73.03 33.23Q74.35 32.20 75.70 31.85Q76.30 31.70 76.95 31.70Q78.00 31.70 78.45 32.20Q78.75 32.50 78.75 33.50Q78.75 34.25 78.50 35.02Q78.25 35.80 77.80 36.30Q77.55 36.55 77.40 36.55Q77.15 36.55 77.15 35.85L77.20 34.85Q77.25 34.45 77.28 34.15Q77.30 33.85 77.30 33.65Q77.30 32.80 76.95 32.65Q76.55 32.55 76.40 32.55Q75.35 32.55 74.15 33.50Q72.95 34.45 72.20 35.70Q71.90 36.15 71.90 36.80Q71.90 37.60 72.33 38.67Q72.75 39.75 72.95 40.25Q73.45 41.35 73.73 42.15Q74.00 42.95 74.00 43.55Q74.00 43.85 73.95 44Q74.20 43.90 75.15 43.70Q76.00 43.50 76.60 43.50Q76.95 43.50 76.95 43.65Q76.95 43.70 76.65 44Q76.50 44.15 75.73 44.48Q74.95 44.80 73.93 45.15Q72.90 45.50 71.90 45.80Q70.90 46.10 70.20 46.25Q69.00 46.60 67.45 46.60ZM77.05 46.60Q76.25 46.60 75.65 46.45Q75.10 46.30 75.10 46.05Q75.10 45.65 75.90 45.60Q76.65 45.55 76.90 45.45Q77.35 45.35 77.95 45.30Q78.50 45.20 78.85 45.15Q81.25 44.45 81.25 43Q81.25 42 80.20 40.45Q79.55 39.50 79.55 38.35Q79.55 36.95 80.43 35.60Q81.30 34.25 82.63 33.23Q83.95 32.20 85.30 31.85Q85.90 31.70 86.55 31.70Q87.60 31.70 88.05 32.20Q88.35 32.50 88.35 33.50Q88.35 34.25 88.10 35.02Q87.85 35.80 87.40 36.30Q87.15 36.55 87.00 36.55Q86.75 36.55 86.75 35.85L86.80 34.85Q86.85 34.45 86.88 34.15Q86.90 33.85 86.90 33.65Q86.90 32.80 86.55 32.65Q86.15 32.55 86.00 32.55Q84.95 32.55 83.75 33.50Q82.55 34.45 81.80 35.70Q81.50 36.15 81.50 36.80Q81.50 37.60 81.93 38.67Q82.35 39.75 82.55 40.25Q83.05 41.35 83.33 42.15Q83.60 42.95 83.60 43.55Q83.60 43.85 83.55 44Q83.80 43.90 84.75 43.70Q85.60 43.50 86.20 43.50Q86.55 43.50 86.55 43.65Q86.55 43.70 86.25 44Q86.10 44.15 85.33 44.48Q84.55 44.80 83.53 45.15Q82.50 45.50 81.50 45.80Q80.50 46.10 79.80 46.25Q78.60 46.60 77.05 46.60ZM89.60 45.35Q87.65 45.35 87.65 43.60Q87.65 43.50 87.68 43.25Q87.70 43 87.75 42.65Q88.25 40.60 89.78 38.67Q91.30 36.75 93.30 35.30Q94.05 34.70 95.70 34.70Q96.65 34.70 97.38 34.98Q98.10 35.25 98.40 35.80Q98.70 36.30 98.70 36.95Q98.70 37.05 98.68 37.25Q98.65 37.45 98.60 37.70Q98.70 37.65 98.93 37.65Q99.15 37.65 99.50 37.60Q99.85 37.55 100.18 37.50Q100.50 37.45 100.85 37.45L101.05 37.45Q101.60 37.45 101.18 37.88Q100.75 38.30 100.05 38.40L98.35 38.60Q97.85 40 96.63 41.40Q95.40 42.80 93.93 43.83Q92.45 44.85 91.15 45.15Q90.40 45.35 89.60 45.35M96.00 37.90Q96.30 37.90 96.73 37.88Q97.15 37.85 97.70 37.80Q97.75 37.70 97.75 37.35Q97.75 36.45 97.00 36.10Q96.60 35.85 96.00 35.85Q95.25 35.85 94.48 36.33Q93.70 36.80 92.85 37.55Q93.90 37.90 96.00 37.90M91.10 43.60Q91.60 43.60 92.53 43.13Q93.45 42.65 94.45 41.85Q95.45 41.05 96.25 40.15Q96.50 39.90 96.75 39.52Q97.00 39.15 97.30 38.75L96.10 38.90Q93.30 39.30 91.10 39.35Q90.00 41.15 89.75 42.35Q89.70 43 90.10 43.30Q90.50 43.60 91.10 43.60ZM109.45 47.95Q108.25 47.95 108.25 47Q108.25 46.05 109.50 44.65Q110.65 43.40 113.25 41.98Q115.85 40.55 119.20 39.45Q119.95 39.20 120.40 39.20Q121.00 39.20 121.00 39.45Q121.00 39.70 120.40 39.85Q118.30 40.40 116.25 41.42Q114.20 42.45 112.60 43.60Q110.05 45.45 110.05 46.15Q110.05 46.55 110.85 46.55Q112.60 46.55 116.25 44.40Q118.65 43 120.80 41.23Q122.95 39.45 124.28 37.70Q125.60 35.95 125.60 34.55Q125.60 32.95 123.70 32.05Q121.90 33 119.95 33.88Q118.00 34.75 116.25 35.45Q114.50 36.15 113.23 36.50Q111.95 36.85 111.50 36.75Q110.00 36.45 110.00 35.65Q110.00 34.95 110.98 34.05Q111.95 33.15 113.18 32.40Q114.40 31.65 115.15 31.40Q118.00 30.40 120.60 30.40Q122.40 30.40 123.95 30.95Q125.75 30.05 127.68 28.40Q129.60 26.75 131.10 24.85Q132.60 22.95 133.05 21.30Q133.30 20.20 133.30 19.70Q133.30 17.75 131.68 16.82Q130.05 15.90 127.30 15.90Q123.15 15.90 117.60 17.65Q113.90 18.80 110.78 20.38Q107.65 21.95 105.75 23.57Q103.85 25.20 103.70 26.65Q103.65 27.10 103.35 27.35Q103.05 27.60 102.70 27.60Q102.10 27.60 102.10 26.85Q102.10 24.30 106.55 21.45Q108.80 19.95 111.58 18.67Q114.35 17.40 117.35 16.45Q120.35 15.50 123.23 14.97Q126.10 14.45 128.50 14.45Q131.75 14.45 133.63 15.50Q135.50 16.55 135.50 18.80Q135.50 19.65 135.20 20.70Q134.65 22.75 133.05 24.75Q131.45 26.75 129.30 28.43Q127.15 30.10 124.85 31.30Q127.65 33.10 127.65 35.35Q127.65 38.10 124.15 41Q122.40 42.45 120.30 43.70Q118.20 44.95 116.10 45.90Q114.00 46.85 112.25 47.40Q110.50 47.95 109.45 47.95M106.55 46.35Q105.25 46.10 104.73 45.45Q104.20 44.80 104.20 43.55Q104.20 43.30 104.25 42.80Q104.30 42.30 104.40 41.50Q104.65 39.75 105.73 37.40Q106.80 35.05 108.38 32.45Q109.95 29.85 111.78 27.35Q113.60 24.85 115.40 22.80L115.10 22.85Q114.85 22.85 114.85 22.60Q114.85 22.40 115.20 21.75Q115.80 20.65 116.60 20.10Q117.00 19.80 117.20 19.65Q117.40 19.50 117.45 19.45Q117.70 19.20 118.25 19.20Q118.90 19.20 119.48 19.55Q120.05 19.90 120.05 20.25Q120.05 20.40 119.80 20.65Q117.60 22.60 114.60 26.50Q112.55 29.15 110.75 31.85Q108.95 34.55 107.78 36.80Q106.60 39.05 106.40 40.45L106.15 41.45Q106.10 41.55 106.08 41.80Q106.05 42.05 105.95 42.45Q105.75 43.10 105.75 43.75Q105.75 44.85 106.60 45.10Q107.25 45.20 107.25 45.85Q107.25 46.45 106.55 46.35M113.05 35.35Q113.25 35.45 113.45 35.45Q114.25 35.45 116.40 34.60Q117.80 34.05 119.38 33.33Q120.95 32.60 122.65 31.70Q122.25 31.60 121.73 31.55Q121.20 31.50 120.65 31.50Q118.60 31.50 116.55 32.40L116.50 32.40Q115.70 32.75 115.03 33.10Q114.35 33.45 113.80 33.70Q112.75 34.20 112.75 34.85Q112.75 35.10 113.05 35.35ZM130.00 45.35Q128.05 45.35 128.05 43.60Q128.05 43.50 128.08 43.25Q128.10 43 128.15 42.65Q128.65 40.60 130.18 38.67Q131.70 36.75 133.70 35.30Q134.45 34.70 136.10 34.70Q137.05 34.70 137.78 34.98Q138.50 35.25 138.80 35.80Q139.10 36.30 139.10 36.95Q139.10 37.05 139.08 37.25Q139.05 37.45 139.00 37.70Q139.10 37.65 139.33 37.65Q139.55 37.65 139.90 37.60Q140.25 37.55 140.58 37.50Q140.90 37.45 141.25 37.45L141.45 37.45Q142.00 37.45 141.58 37.88Q141.15 38.30 140.45 38.40L138.75 38.60Q138.25 40 137.03 41.40Q135.80 42.80 134.33 43.83Q132.85 44.85 131.55 45.15Q130.80 45.35 130.00 45.35M136.40 37.90Q136.70 37.90 137.13 37.88Q137.55 37.85 138.10 37.80Q138.15 37.70 138.15 37.35Q138.15 36.45 137.40 36.10Q137.00 35.85 136.40 35.85Q135.65 35.85 134.88 36.33Q134.10 36.80 133.25 37.55Q134.30 37.90 136.40 37.90M131.50 43.60Q132.00 43.60 132.93 43.13Q133.85 42.65 134.85 41.85Q135.85 41.05 136.65 40.15Q136.90 39.90 137.15 39.52Q137.40 39.15 137.70 38.75L136.50 38.90Q133.70 39.30 131.50 39.35Q130.40 41.15 130.15 42.35Q130.10 43 130.50 43.30Q130.90 43.60 131.50 43.60ZM140.65 49.15Q140.40 49.15 140.40 48.70Q140.40 48.60 140.43 48.42Q140.45 48.25 140.50 48.05L142.65 42.65L145.20 36.35Q144.60 36.30 143.45 36.38Q142.30 36.45 141.50 36.60Q141.20 36.65 141.03 36.67Q140.85 36.70 140.75 36.70Q140.35 36.70 140.20 36.35Q140.25 36.05 140.75 35.80Q141.00 35.70 141.35 35.63Q141.70 35.55 142.20 35.45Q142.75 35.35 143.18 35.30Q143.60 35.25 143.80 35.20Q144.05 35.15 144.30 35.10Q144.55 35.05 144.90 35Q145.20 34.95 145.55 34.90Q145.90 34.85 146.30 34.75Q146.70 34.20 147.50 32.80Q148.30 31.40 149.55 29.10Q150.55 27.25 151.18 26.18Q151.80 25.10 152.05 24.75Q152.50 24.15 153.10 24.15Q153.40 24.15 153.40 24.40Q153.40 24.45 153.15 25.05Q152.85 25.55 152.15 26.90Q151.45 28.25 150.65 29.85Q149.85 31.45 149.20 32.85Q148.55 34.25 148.30 34.90Q148.55 34.85 148.88 34.85Q149.20 34.85 149.70 34.85Q150.25 34.85 150.73 34.88Q151.20 34.90 151.55 34.95Q152.25 35.10 152.25 35.35Q152.25 35.45 151.80 35.70Q151.55 35.80 150.85 35.90Q150.15 36 149.00 36.10Q148.70 36.10 148.35 36.13Q148.00 36.15 147.60 36.20Q146.10 38.65 143.50 44.35Q142.55 46.25 142.05 47.30Q141.55 48.35 141.45 48.55Q141.00 49.15 140.65 49.15Z"/></g></g></g></svg>